<svg xmlns="http://www.w3.org/2000/svg" xmlns:xlink="http://www.w3.org/1999/xlink" viewBox="0 0 146.53 146.52"><defs><style>.cls-1,.cls-2{fill:none;}.cls-1{clip-rule:evenodd;}.cls-3{clip-path:url(#clip-path);}.cls-4{clip-path:url(#clip-path-2);}.cls-5{fill:#f05454;}.cls-6{clip-path:url(#clip-path-3);}.cls-7{fill:#040404;opacity:0.3;}.cls-8{clip-path:url(#clip-path-5);}.cls-9{fill:#2f2f31;}.cls-10{clip-path:url(#clip-path-7);}.cls-11{fill:#fff;}.cls-12{clip-path:url(#clip-path-9);}.cls-13{clip-path:url(#clip-path-11);}.cls-14{clip-path:url(#clip-path-13);}.cls-15{clip-path:url(#clip-path-15);}.cls-16{clip-path:url(#clip-path-17);}.cls-17{clip-path:url(#clip-path-19);}.cls-18{clip-path:url(#clip-path-21);}.cls-19{clip-path:url(#clip-path-23);}.cls-20{clip-path:url(#clip-path-25);}.cls-21{clip-path:url(#clip-path-27);}.cls-22{clip-path:url(#clip-path-29);}.cls-23{clip-path:url(#clip-path-31);}.cls-24{clip-path:url(#clip-path-33);}.cls-25{clip-path:url(#clip-path-35);}.cls-26{clip-path:url(#clip-path-37);}</style><clipPath id="clip-path" transform="translate(5 5)"><path class="cls-1" d="M8.3,128.86l-.64-.64a16.44,16.44,0,0,1,0-23.25l7.58-7.57,23.89,23.89-7.58,7.57a16.44,16.44,0,0,1-23.25,0"/></clipPath><clipPath id="clip-path-2" transform="translate(5 5)"><rect class="cls-2" x="-737" y="-268" width="1400" height="960"/></clipPath><clipPath id="clip-path-3" transform="translate(5 5)"><path class="cls-1" d="M32.47,114.63l-6.63,6.62a16.44,16.44,0,0,1-21.91,1.2,16.4,16.4,0,0,0,3.73,5.77l.64.64a16.44,16.44,0,0,0,23.25,0l7.58-7.57Z"/></clipPath><clipPath id="clip-path-5" transform="translate(5 5)"><path class="cls-1" d="M19.93,136.52a19.25,19.25,0,0,1-13.65-5.64l-.64-.64a19.33,19.33,0,0,1,0-27.29l7.58-7.57a2.85,2.85,0,0,1,4,0l23.89,23.89a2.85,2.85,0,0,1,0,4l-7.58,7.58A19.23,19.23,0,0,1,19.93,136.52Zm-9.61-9.67a13.61,13.61,0,0,0,19.21,0l5.56-5.56L15.24,101.43,9.68,107a13.6,13.6,0,0,0,0,19.22Z"/></clipPath><clipPath id="clip-path-7" transform="translate(5 5)"><line class="cls-2" x1="44.51" y1="92.02" x2="27.19" y2="109.34"/></clipPath><clipPath id="clip-path-9" transform="translate(5 5)"><path class="cls-1" d="M27.18,112.19a2.8,2.8,0,0,1-2-.83,2.85,2.85,0,0,1,0-4L42.49,90a2.85,2.85,0,1,1,4,4L29.2,111.36a2.8,2.8,0,0,1-2,.83"/></clipPath><clipPath id="clip-path-11" transform="translate(5 5)"><polygon class="cls-1" points="101.24 35.28 73.92 34.96 45.01 91.52 101.57 62.6 101.24 35.28"/></clipPath><clipPath id="clip-path-13" transform="translate(5 5)"><path class="cls-1" d="M45,94.37a2.89,2.89,0,0,1-2-.83,2.84,2.84,0,0,1-.52-3.32L71.38,33.66A2.75,2.75,0,0,1,74,32.1l27.31.33a2.85,2.85,0,0,1,2.82,2.82l.33,27.32a2.86,2.86,0,0,1-1.55,2.57L46.31,94.06A2.86,2.86,0,0,1,45,94.37ZM75.66,37.83,51.57,85,98.69,60.87l-.27-22.76Z"/></clipPath><clipPath id="clip-path-15" transform="translate(5 5)"><line class="cls-2" x1="57.89" y1="108.59" x2="34.9" y2="117.06"/></clipPath><clipPath id="clip-path-17" transform="translate(5 5)"><path class="cls-1" d="M34.9,119.91a2.85,2.85,0,0,1-1-5.53l23-8.47a2.86,2.86,0,1,1,2,5.36l-23,8.46a2.88,2.88,0,0,1-1,.18"/></clipPath><clipPath id="clip-path-19" transform="translate(5 5)"><polygon class="cls-1" points="133.67 68.22 123.12 91.99 58.55 108.34 107.67 67.8 133.67 68.22"/></clipPath><clipPath id="clip-path-21" transform="translate(5 5)"><path class="cls-1" d="M58.55,111.2a2.86,2.86,0,0,1-1.82-5.06l49.12-40.55a3.19,3.19,0,0,1,1.87-.65l26,.43a2.85,2.85,0,0,1,2.56,4L125.73,93.14a2.81,2.81,0,0,1-1.9,1.61L59.25,111.11A2.8,2.8,0,0,1,58.55,111.2Zm50.13-40.53L70.17,102.46l50.91-12.9L129.31,71Z"/></clipPath><clipPath id="clip-path-23" transform="translate(5 5)"><line class="cls-2" x1="19.47" y1="101.62" x2="27.94" y2="78.64"/></clipPath><clipPath id="clip-path-25" transform="translate(5 5)"><path class="cls-1" d="M19.47,104.48a2.88,2.88,0,0,1-1-.18,2.85,2.85,0,0,1-1.69-3.66l8.47-23a2.85,2.85,0,1,1,5.35,2l-8.46,23a2.86,2.86,0,0,1-2.68,1.87"/></clipPath><clipPath id="clip-path-27" transform="translate(5 5)"><polygon class="cls-1" points="68.3 2.85 44.54 13.4 28.18 77.97 68.73 28.86 68.3 2.85"/></clipPath><clipPath id="clip-path-29" transform="translate(5 5)"><path class="cls-1" d="M28.18,80.83a2.82,2.82,0,0,1-1.29-.31,2.88,2.88,0,0,1-1.48-3.25L41.77,12.7a2.88,2.88,0,0,1,1.61-1.91L67.14.24a2.87,2.87,0,0,1,4,2.57l.42,26a2.85,2.85,0,0,1-.65,1.86L30.38,79.79A2.87,2.87,0,0,1,28.18,80.83ZM47,15.45,34.07,66.36,65.86,27.85,65.52,7.21Z"/></clipPath><clipPath id="clip-path-31" transform="translate(5 5)"><line class="cls-2" x1="46.79" y1="112.57" x2="23.7" y2="89.48"/></clipPath><clipPath id="clip-path-33" transform="translate(5 5)"><path class="cls-1" d="M46.79,115.42a2.84,2.84,0,0,1-2-.83L21.69,91.5a2.85,2.85,0,1,1,4-4l23.09,23.09a2.87,2.87,0,0,1,0,4,2.84,2.84,0,0,1-2,.83"/></clipPath><clipPath id="clip-path-35" transform="translate(5 5)"><line class="cls-2" x1="57.59" y1="108.89" x2="27.64" y2="78.94"/></clipPath><clipPath id="clip-path-37" transform="translate(5 5)"><path class="cls-1" d="M57.59,111.74a2.88,2.88,0,0,1-2-.83L25.62,81a2.85,2.85,0,1,1,4-4l30,30a2.85,2.85,0,0,1-2,4.87"/></clipPath></defs><g id="Layer_2" data-name="Layer 2"><g id="Layer_1-2" data-name="Layer 1"><g class="cls-3"><g class="cls-4"><rect class="cls-5" x="2.84" y="97.4" width="46.28" height="46.28"/></g></g><g class="cls-6"><g class="cls-4"><rect class="cls-7" x="3.93" y="114.63" width="45.2" height="29.05"/></g></g><g class="cls-8"><g class="cls-4"><rect class="cls-9" y="94.54" width="51.98" height="51.98"/></g></g><g class="cls-10"><g class="cls-4"><rect class="cls-11" x="27.19" y="92.02" width="27.32" height="27.32"/></g></g><g class="cls-12"><g class="cls-4"><rect class="cls-9" x="24.33" y="89.16" width="33.03" height="33.03"/></g></g><g class="cls-13"><g class="cls-4"><rect class="cls-11" x="45.01" y="34.96" width="66.56" height="66.56"/></g></g><g class="cls-14"><g class="cls-4"><rect class="cls-9" x="42.15" y="32.1" width="72.27" height="72.28"/></g></g><g class="cls-15"><g class="cls-4"><rect class="cls-11" x="34.9" y="108.59" width="32.99" height="18.47"/></g></g><g class="cls-16"><g class="cls-4"><rect class="cls-9" x="32.05" y="105.73" width="38.7" height="24.17"/></g></g><g class="cls-17"><g class="cls-4"><rect class="cls-11" x="58.55" y="67.8" width="85.12" height="50.55"/></g></g><g class="cls-18"><g class="cls-4"><rect class="cls-9" x="55.7" y="64.94" width="90.83" height="56.26"/></g></g><g class="cls-19"><g class="cls-4"><rect class="cls-11" x="19.47" y="78.64" width="18.47" height="32.99"/></g></g><g class="cls-20"><g class="cls-4"><rect class="cls-9" x="16.61" y="75.78" width="24.18" height="38.7"/></g></g><g class="cls-21"><g class="cls-4"><rect class="cls-11" x="28.18" y="2.85" width="50.55" height="85.12"/></g></g><g class="cls-22"><g class="cls-4"><rect class="cls-9" x="25.33" width="56.25" height="90.83"/></g></g><g class="cls-23"><g class="cls-4"><rect class="cls-11" x="23.7" y="89.48" width="33.09" height="33.09"/></g></g><g class="cls-24"><g class="cls-4"><rect class="cls-9" x="20.85" y="86.63" width="38.8" height="38.8"/></g></g><g class="cls-25"><g class="cls-4"><rect class="cls-11" x="27.64" y="78.94" width="39.95" height="39.95"/></g></g><g class="cls-26"><g class="cls-4"><rect class="cls-9" x="24.78" y="76.08" width="45.66" height="45.66"/></g></g></g></g></svg>