<svg xmlns="http://www.w3.org/2000/svg" xmlns:xlink="http://www.w3.org/1999/xlink" viewBox="0 0 105.58 143.34"><defs><style>.cls-1,.cls-2{fill:none;}.cls-2{clip-rule:evenodd;}.cls-3{clip-path:url(#clip-path);}.cls-4{clip-path:url(#clip-path-2);}.cls-5{fill:#fff;}.cls-6{clip-path:url(#clip-path-3);}.cls-7{fill:#040404;opacity:0.3;}.cls-8{clip-path:url(#clip-path-5);}.cls-9{fill:#2f2f31;}.cls-10{clip-path:url(#clip-path-7);}.cls-11{fill:#8e8e8d;}.cls-12{clip-path:url(#clip-path-9);}.cls-13{clip-path:url(#clip-path-11);}.cls-14{clip-path:url(#clip-path-13);}.cls-15{clip-path:url(#clip-path-15);}.cls-16{clip-path:url(#clip-path-17);}.cls-17{clip-path:url(#clip-path-19);}.cls-18{clip-path:url(#clip-path-21);}.cls-19{clip-path:url(#clip-path-23);}.cls-20{clip-path:url(#clip-path-25);}.cls-21{clip-path:url(#clip-path-27);}.cls-22{clip-path:url(#clip-path-29);}</style><clipPath id="clip-path" transform="translate(5 5)"><ellipse class="cls-1" cx="47.79" cy="47.81" rx="44.94" ry="44.96"/></clipPath><clipPath id="clip-path-2" transform="translate(5 5)"><rect class="cls-1" x="-363" y="-464.9" width="1400" height="960"/></clipPath><clipPath id="clip-path-3" transform="translate(5 5)"><path class="cls-2" d="M82.45,19.19A44.94,44.94,0,0,1,5.53,63.11,44.94,44.94,0,1,0,82.45,19.19"/></clipPath><clipPath id="clip-path-5" transform="translate(5 5)"><path class="cls-2" d="M47.79,95.62A47.81,47.81,0,1,1,95.58,47.81,47.85,47.85,0,0,1,47.79,95.62m0-89.91a42.11,42.11,0,1,0,42.09,42.1A42.14,42.14,0,0,0,47.79,5.71"/></clipPath><clipPath id="clip-path-7" transform="translate(5 5)"><rect class="cls-1" x="17.52" y="92.15" width="60.54" height="10.93"/></clipPath><clipPath id="clip-path-9" transform="translate(5 5)"><path class="cls-2" d="M78.06,105.94H17.52a2.86,2.86,0,0,1-2.85-2.85V92.16a2.86,2.86,0,0,1,2.85-2.86H78.06a2.86,2.86,0,0,1,2.86,2.86v10.93A2.86,2.86,0,0,1,78.06,105.94Zm-57.69-5.71H75.21V95H20.37Z"/></clipPath><clipPath id="clip-path-11" transform="translate(5 5)"><polygon class="cls-2" points="47.79 103.08 39.08 103.08 42.87 130.49 47.79 130.49 52.72 130.49 56.5 103.08 47.79 103.08"/></clipPath><clipPath id="clip-path-13" transform="translate(5 5)"><path class="cls-2" d="M52.72,133.34H42.86A2.85,2.85,0,0,1,40,130.88l-3.78-27.4a2.85,2.85,0,0,1,2.82-3.25H56.5a2.85,2.85,0,0,1,2.15,1,2.88,2.88,0,0,1,.68,2.27l-3.78,27.4A2.86,2.86,0,0,1,52.72,133.34Zm-7.37-5.7h4.88l3-21.7H42.36Z"/></clipPath><clipPath id="clip-path-15" transform="translate(5 5)"><path class="cls-2" d="M23.61,47.88A5.57,5.57,0,1,1,18,42.32a5.57,5.57,0,0,1,5.57,5.56"/></clipPath><clipPath id="clip-path-17" transform="translate(5 5)"><path class="cls-2" d="M18,56.3a8.42,8.42,0,1,1,8.42-8.42A8.43,8.43,0,0,1,18,56.3m0-11.13a2.72,2.72,0,1,0,2.71,2.71A2.72,2.72,0,0,0,18,45.17"/></clipPath><clipPath id="clip-path-19" transform="translate(5 5)"><path class="cls-2" d="M43.22,47.88a5.57,5.57,0,1,1-5.56-5.56,5.56,5.56,0,0,1,5.56,5.56"/></clipPath><clipPath id="clip-path-21" transform="translate(5 5)"><path class="cls-2" d="M37.66,56.3a8.42,8.42,0,1,1,8.41-8.42,8.43,8.43,0,0,1-8.41,8.42m0-11.13a2.72,2.72,0,1,0,2.71,2.71,2.72,2.72,0,0,0-2.71-2.71"/></clipPath><clipPath id="clip-path-23" transform="translate(5 5)"><path class="cls-2" d="M33.78,30.76a5.56,5.56,0,1,1-5.56-5.57,5.57,5.57,0,0,1,5.56,5.57"/></clipPath><clipPath id="clip-path-25" transform="translate(5 5)"><path class="cls-2" d="M28.22,39.18a8.42,8.42,0,1,1,8.42-8.42,8.43,8.43,0,0,1-8.42,8.42m0-11.13a2.71,2.71,0,1,0,2.71,2.71,2.71,2.71,0,0,0-2.71-2.71"/></clipPath><clipPath id="clip-path-27" transform="translate(5 5)"><path class="cls-2" d="M33.78,64.87a5.56,5.56,0,1,1-5.56-5.57,5.56,5.56,0,0,1,5.56,5.57"/></clipPath><clipPath id="clip-path-29" transform="translate(5 5)"><path class="cls-2" d="M28.22,73.29a8.42,8.42,0,1,1,8.42-8.42,8.43,8.43,0,0,1-8.42,8.42m0-11.14a2.72,2.72,0,1,0,2.71,2.72,2.71,2.71,0,0,0-2.71-2.72"/></clipPath></defs><g id="Layer_2" data-name="Layer 2"><g id="Layer_1-2" data-name="Layer 1"><g class="cls-3"><g class="cls-4"><rect class="cls-5" x="2.85" y="2.85" width="99.88" height="99.92"/></g></g><g class="cls-6"><g class="cls-4"><rect class="cls-7" x="5.53" y="19.19" width="97.2" height="83.58"/></g></g><g class="cls-8"><g class="cls-4"><rect class="cls-9" width="105.58" height="105.62"/></g></g><g class="cls-10"><g class="cls-4"><rect class="cls-11" x="17.52" y="92.15" width="70.54" height="20.93"/></g></g><g class="cls-12"><g class="cls-4"><rect class="cls-9" x="14.67" y="89.3" width="76.25" height="26.64"/></g></g><g class="cls-13"><g class="cls-4"><rect class="cls-11" x="39.08" y="103.08" width="27.42" height="37.41"/></g></g><g class="cls-14"><g class="cls-4"><rect class="cls-9" x="36.23" y="100.23" width="33.13" height="43.11"/></g></g><g class="cls-15"><g class="cls-4"><rect class="cls-5" x="12.48" y="42.32" width="21.13" height="21.14"/></g></g><g class="cls-16"><g class="cls-4"><rect class="cls-9" x="9.62" y="39.46" width="26.83" height="26.84"/></g></g><g class="cls-17"><g class="cls-4"><rect class="cls-5" x="32.09" y="42.32" width="21.13" height="21.14"/></g></g><g class="cls-18"><g class="cls-4"><rect class="cls-9" x="29.24" y="39.46" width="26.84" height="26.84"/></g></g><g class="cls-19"><g class="cls-4"><rect class="cls-5" x="22.66" y="25.19" width="21.13" height="21.14"/></g></g><g class="cls-20"><g class="cls-4"><rect class="cls-9" x="19.8" y="22.34" width="26.84" height="26.84"/></g></g><g class="cls-21"><g class="cls-4"><rect class="cls-5" x="22.66" y="59.3" width="21.13" height="21.14"/></g></g><g class="cls-22"><g class="cls-4"><rect class="cls-9" x="19.8" y="56.45" width="26.84" height="26.84"/></g></g></g></g></svg>