<svg xmlns="http://www.w3.org/2000/svg" xmlns:xlink="http://www.w3.org/1999/xlink" viewBox="0 0 136.6 136.71"><defs><style>.cls-1,.cls-2{fill:none;}.cls-1{clip-rule:evenodd;}.cls-3{clip-path:url(#clip-path);}.cls-4{clip-path:url(#clip-path-2);}.cls-5{fill:#fbd148;}.cls-6{clip-path:url(#clip-path-3);}.cls-7{fill:#040404;opacity:0.3;}.cls-8{clip-path:url(#clip-path-5);}.cls-9{isolation:isolate;}.cls-10{clip-path:url(#clip-path-7);}.cls-11{clip-path:url(#clip-path-8);}.cls-12{fill:#2f2f31;}.cls-13{clip-path:url(#clip-path-10);}.cls-14{clip-path:url(#clip-path-12);}</style><clipPath id="clip-path" transform="translate(5 5)"><path class="cls-1" d="M20.53,20.55a60.51,60.51,0,1,0,85.54,0,60.57,60.57,0,0,0-85.54,0"/></clipPath><clipPath id="clip-path-2" transform="translate(5 5)"><rect class="cls-2" x="-545" y="-272.9" width="1400" height="960"/></clipPath><clipPath id="clip-path-3" transform="translate(5 5)"><path class="cls-1" d="M96.68,13.49A60.5,60.5,0,0,1,12.86,97.38,60.5,60.5,0,1,0,96.68,13.49"/></clipPath><clipPath id="clip-path-5" transform="translate(5 5)"><rect class="cls-2" width="126.6" height="126.71"/></clipPath><clipPath id="clip-path-7" transform="translate(5 5)"><rect class="cls-2" y="-0.9" width="127" height="128"/></clipPath><clipPath id="clip-path-8" transform="translate(5 5)"><path class="cls-1" d="M63.3,126.71a63.36,63.36,0,1,1,44.78-18.54A63.1,63.1,0,0,1,63.3,126.71m0-121a57.67,57.67,0,1,0,40.76,16.87A57.43,57.43,0,0,0,63.3,5.69"/></clipPath><clipPath id="clip-path-10" transform="translate(5 5)"><path class="cls-1" d="M4,51.25S17.22,49.5,23.18,64.18l0,0A35.66,35.66,0,1,0,64.11,23.23l0,0C49.46,17.24,51.21,4,51.21,4A60.5,60.5,0,0,0,4,51.25"/></clipPath><clipPath id="clip-path-12" transform="translate(5 5)"><path class="cls-1" d="M58.37,96.93A38.4,38.4,0,0,1,20.48,65.08C15.45,53,5,54,4.41,54.07a2.8,2.8,0,0,1-2.1-.56,2.86,2.86,0,0,1-1.06-2.82A63.37,63.37,0,0,1,50.64,1.25,2.85,2.85,0,0,1,54,4.42c-.06.43-1.17,11,11,16.07a38.51,38.51,0,0,1-6.66,76.44M25.66,62.73a2.89,2.89,0,0,1,.35,1A32.81,32.81,0,1,0,63.65,26a2.85,2.85,0,0,1-1-.36C52.47,21.36,49,13.37,48.39,7.63A57.65,57.65,0,0,0,7.61,48.47a22.33,22.33,0,0,1,5.25,1.25c4,1.51,9.42,5,12.8,13"/></clipPath></defs><g id="Layer_2" data-name="Layer 2"><g id="Layer_1-2" data-name="Layer 1"><g class="cls-3"><g class="cls-4"><rect class="cls-5" x="2.81" y="2.82" width="130.98" height="131.07"/></g></g><g class="cls-6"><g class="cls-4"><rect class="cls-7" x="12.86" y="13.49" width="120.93" height="121.02"/></g></g><g class="cls-8"><g class="cls-4"><g class="cls-9"><g class="cls-10"><g class="cls-11"><g class="cls-10"><rect class="cls-12" width="136.6" height="136.71"/></g></g></g></g></g></g><g class="cls-13"><g class="cls-4"><rect class="cls-5" x="4.04" y="4.04" width="99.99" height="100.06"/></g></g><g class="cls-14"><g class="cls-4"><rect class="cls-12" x="1.2" y="1.2" width="105.66" height="105.73"/></g></g></g></g></svg>