<svg xmlns="http://www.w3.org/2000/svg" xmlns:xlink="http://www.w3.org/1999/xlink" viewBox="0 0 136.59 136.7"><defs><style>.cls-1,.cls-2{fill:none;}.cls-1{clip-rule:evenodd;}.cls-3{clip-path:url(#clip-path);}.cls-4{clip-path:url(#clip-path-2);}.cls-5{fill:#d18f52;}.cls-6{clip-path:url(#clip-path-3);}.cls-7{fill:#735641;}.cls-8{clip-path:url(#clip-path-5);}.cls-9{clip-path:url(#clip-path-7);}.cls-10{fill:#040404;opacity:0.3;}.cls-11{clip-path:url(#clip-path-9);}.cls-12{fill:#2f2f31;}.cls-13{clip-path:url(#clip-path-11);}.cls-14{clip-path:url(#clip-path-13);}.cls-15{clip-path:url(#clip-path-15);}.cls-16{clip-path:url(#clip-path-17);}.cls-17{clip-path:url(#clip-path-19);}.cls-18{clip-path:url(#clip-path-21);}.cls-19{clip-path:url(#clip-path-23);}.cls-20{clip-path:url(#clip-path-25);}.cls-21{clip-path:url(#clip-path-27);}.cls-22{clip-path:url(#clip-path-29);}</style><clipPath id="clip-path" transform="translate(5 5)"><path class="cls-1" d="M122.69,3.91S61-4.64,28.16,28.18,3.9,122.79,3.9,122.79s61.73,8.55,94.53-24.27S122.69,3.91,122.69,3.91"/></clipPath><clipPath id="clip-path-2" transform="translate(5 5)"><rect class="cls-2" x="-938" y="-661.9" width="1400" height="960"/></clipPath><clipPath id="clip-path-3" transform="translate(5 5)"><path class="cls-1" d="M87.53,4.6a163.71,163.71,0,0,1,34.22.25A163.54,163.54,0,0,1,122,39.09Z"/></clipPath><clipPath id="clip-path-5" transform="translate(5 5)"><path class="cls-1" d="M3.66,88.54a164.49,164.49,0,0,0,.24,34.25,163.39,163.39,0,0,0,34.22.24Z"/></clipPath><clipPath id="clip-path-7" transform="translate(5 5)"><path class="cls-1" d="M98.43,79.55C65.63,112.37,3.9,103.82,3.9,103.82s-.44-3.26-.74-8.64a160,160,0,0,0,.74,27.61s61.73,8.55,94.53-24.27c25.3-25.32,26-67.84,25-86-1.13,20.67-6.46,48.46-25,67"/></clipPath><clipPath id="clip-path-9" transform="translate(5 5)"><path class="cls-1" d="M22.37,126.7a147.8,147.8,0,0,1-18.86-1.09,2.84,2.84,0,0,1-2.42-2.43c-.36-2.58-8.36-63.56,25.06-97S120.49.73,123.08,1.09a2.84,2.84,0,0,1,2.42,2.43c.36,2.58,8.36,63.56-25.06,97C78.17,122.82,43.66,126.7,22.37,126.7M6.48,120.21c11.12,1.09,62,4.31,89.94-23.71s24.78-78.88,23.69-90C109,5.4,58.17,2.17,30.17,30.2s-24.78,78.88-23.69,90"/></clipPath><clipPath id="clip-path-11" transform="translate(5 5)"><path class="cls-1" d="M21.89,126.64a146.77,146.77,0,0,1-18.38-1,2.83,2.83,0,0,1-2.42-2.43A165.35,165.35,0,0,1,.83,88.27,2.89,2.89,0,0,1,2.7,85.86a2.86,2.86,0,0,1,3,.67L40.13,121a2.84,2.84,0,0,1-1.74,4.84c-6,.58-11.62.78-16.5.78M6.47,120.22a168.5,168.5,0,0,0,25.27.44L6,94.93a168.75,168.75,0,0,0,.44,25.29"/></clipPath><clipPath id="clip-path-13" transform="translate(5 5)"><path class="cls-1" d="M122,41.94a2.82,2.82,0,0,1-2-.84L85.52,6.62a2.85,2.85,0,0,1,1.74-4.85A165,165,0,0,1,122.14,2a2.82,2.82,0,0,1,2.43,2.43,164.83,164.83,0,0,1,.25,34.9A2.83,2.83,0,0,1,123,41.77a2.9,2.9,0,0,1-1,.17M93.92,7,119.63,32.7a166.71,166.71,0,0,0-.45-25.28A166.47,166.47,0,0,0,93.92,7"/></clipPath><clipPath id="clip-path-15" transform="translate(5 5)"><line class="cls-2" x1="76.94" y1="48" x2="47.96" y2="77"/></clipPath><clipPath id="clip-path-17" transform="translate(5 5)"><path class="cls-1" d="M48,79.85A2.85,2.85,0,0,1,46,75l29-29a2.84,2.84,0,0,1,4,4L50,79a2.84,2.84,0,0,1-2,.83"/></clipPath><clipPath id="clip-path-19" transform="translate(5 5)"><line class="cls-2" x1="57.37" y1="57.42" x2="67.53" y2="67.59"/></clipPath><clipPath id="clip-path-21" transform="translate(5 5)"><path class="cls-1" d="M67.53,70.43a2.84,2.84,0,0,1-2-.83L55.36,59.43a2.84,2.84,0,0,1,4-4L69.54,65.57a2.85,2.85,0,0,1-2,4.86"/></clipPath><clipPath id="clip-path-23" transform="translate(5 5)"><line class="cls-2" x1="67.43" y1="47.35" x2="77.59" y2="57.52"/></clipPath><clipPath id="clip-path-25" transform="translate(5 5)"><path class="cls-1" d="M77.59,60.36a2.8,2.8,0,0,1-2-.83L65.42,49.36a2.84,2.84,0,0,1,4-4L79.6,55.5a2.85,2.85,0,0,1,0,4,2.8,2.8,0,0,1-2,.83"/></clipPath><clipPath id="clip-path-27" transform="translate(5 5)"><line class="cls-2" x1="47.31" y1="67.49" x2="57.47" y2="77.66"/></clipPath><clipPath id="clip-path-29" transform="translate(5 5)"><path class="cls-1" d="M57.47,80.5a2.84,2.84,0,0,1-2-.83L45.3,69.5a2.85,2.85,0,0,1,4-4L59.48,75.64a2.85,2.85,0,0,1-2,4.86"/></clipPath></defs><g id="Layer_2" data-name="Layer 2"><g id="Layer_1-2" data-name="Layer 1"><g class="cls-3"><g class="cls-4"><rect class="cls-5" x="2.9" y="2.9" width="130.79" height="130.89"/></g></g><g class="cls-6"><g class="cls-4"><rect class="cls-7" x="87.53" y="3.85" width="45.22" height="45.24"/></g></g><g class="cls-8"><g class="cls-4"><rect class="cls-7" x="2.91" y="88.54" width="45.22" height="45.25"/></g></g><g class="cls-9"><g class="cls-4"><rect class="cls-10" x="2.9" y="12.54" width="130.79" height="121.25"/></g></g><g class="cls-11"><g class="cls-4"><rect class="cls-12" width="136.59" height="136.7"/></g></g><g class="cls-13"><g class="cls-4"><rect class="cls-12" x="0.06" y="85.7" width="50.91" height="50.94"/></g></g><g class="cls-14"><g class="cls-4"><rect class="cls-12" x="84.69" y="1" width="50.91" height="50.94"/></g></g><g class="cls-15"><g class="cls-4"><rect class="cls-7" x="47.96" y="48" width="38.98" height="39"/></g></g><g class="cls-16"><g class="cls-4"><rect class="cls-12" x="45.12" y="45.15" width="44.67" height="44.7"/></g></g><g class="cls-17"><g class="cls-4"><rect class="cls-7" x="57.37" y="57.42" width="20.16" height="20.17"/></g></g><g class="cls-18"><g class="cls-4"><rect class="cls-12" x="54.52" y="54.57" width="25.85" height="25.86"/></g></g><g class="cls-19"><g class="cls-4"><rect class="cls-7" x="67.43" y="47.35" width="20.16" height="20.17"/></g></g><g class="cls-20"><g class="cls-4"><rect class="cls-12" x="64.59" y="44.5" width="25.85" height="25.86"/></g></g><g class="cls-21"><g class="cls-4"><rect class="cls-7" x="47.31" y="67.49" width="20.16" height="20.17"/></g></g><g class="cls-22"><g class="cls-4"><rect class="cls-12" x="44.46" y="64.64" width="25.85" height="25.86"/></g></g></g></g></svg>